<svg xmlns="http://www.w3.org/2000/svg" width="40" height="153.5" viewBox="0 0 40 153.5">
  <g id="Group_7655" data-name="Group 7655" transform="translate(-1774 -876.5)">
    <text id="Scroll" transform="translate(1797.513 924.5) rotate(-90)" fill="#fff" font-size="18" font-family="Poppins-Light, Poppins" font-weight="300"><tspan x="0" y="0">Scroll</tspan></text>
    <g id="Ellipse_1" data-name="Ellipse 1" transform="translate(1774 990)" fill="none" stroke="#ee4123" stroke-width="1">
      <circle cx="20" cy="20" r="20" stroke="none"/>
      <circle cx="20" cy="20" r="19.5" fill="none"/>
    </g>
    <path id="Path_238" data-name="Path 238" d="M3.347,69.356V2.2L1.1,4.459a.643.643,0,1,1-.912-.907h0L3.531.189h0a.643.643,0,0,1,.911,0h0L7.787,3.55a.643.643,0,1,1-.912.907L4.629,2.2V69.356a.644.644,0,1,1-1.287,0Z" transform="translate(1797.975 1014.807) rotate(180)" fill="#fff"/>
  </g>
</svg>
