<svg xmlns="http://www.w3.org/2000/svg" width="100.841" height="56.49" viewBox="0 0 100.841 56.49">
  <g id="Group_12171" data-name="Group 12171" transform="translate(-1218.228 -203.3)">
    <rect id="Rectangle_3975" data-name="Rectangle 3975" width="12.765" height="55.022" transform="translate(1218.228 204.034)" fill="#fff"/>
    <path id="Path_17347" data-name="Path 17347" d="M1283.341,244.8a16.4,16.4,0,0,1-11.67,4.421c-10.734,0-17.262-7.768-17.262-17.848,0-10.639,7.833-17.29,16.681-17.29,5.207,0,9.667,1.575,12.252,3.97V205.238a36.175,36.175,0,0,0-12.4-1.938c-16.392,0-29.23,11.9-29.23,28.072,0,16.869,12.112,28.419,29.374,28.419a30.664,30.664,0,0,0,12.252-2.351Z" transform="translate(-6.819 0)" fill="#ee4123"/>
    <path id="Path_17348" data-name="Path 17348" d="M1318.778,216.886H1306.5V204.608h38.2v12.278H1332.42v42.29h-13.642Z" transform="translate(-25.628 -0.38)" fill="#fff"/>
  </g>
</svg>
